# xmcd
#
# Track frame offsets: 
#        150
#        17558
#        36198
#        48938
#        68101
#        91353
#        103062
#        120957
#        134380
#
# Disc length: 1977 seconds
#
# Revision: 0
# Processed by: cddbd v1.5.2PL0 Copyright (c) Steve Scherf et al.
# Submitted via: ExactAudioCopyFreeDBPlugin 1.0
#
DISCID=6e07b709
DTITLE=Eric Hughes Band - Meet Me In Memphis
DYEAR=2017
DGENRE=Erectile Dysfunction
TTITLE0=Freight Train Of Pain
TTITLE1=Meet Me In Memphis
TTITLE2=Roll A Fatty For Your Daddy
TTITLE3=The Day They Hanged The Kid
TTITLE4=Here Comes The Boogie Man
TTITLE5=Left My Heart At Your Place (For Donna)
TTITLE6=Midtown Blues
TTITLE7=I'm Knocking On Your Door
TTITLE8=Believe I'm Going Fishing
EXTD=
EXTT0=
EXTT1=
EXTT2=
EXTT3=
EXTT4=
EXTT5=
EXTT6=
EXTT7=
EXTT8=
PLAYORDER=
